<svg width="157" height="150" viewBox="0 0 157 150" fill="none" xmlns="http://www.w3.org/2000/svg">
  <path d="M78.6549 149.085C121.768 149.085 156.719 146.935 156.719 144.282C156.719 141.629 121.768 139.479 78.6549 139.479C35.5414 139.479 0.591003 141.629 0.591003 144.282C0.591003 146.935 35.5414 149.085 78.6549 149.085Z" fill="#F5F5F5"/>
  <path d="M105.429 9.79749H12.6172L18.725 143.009H111.537L105.429 9.79749Z" fill="#F79E89"/>
  <path opacity="0.2" d="M105.429 9.79749H12.6172L18.725 143.009H111.537L105.429 9.79749Z" fill="black"/>
  <path d="M106.287 9.79749H13.4749L19.5866 143.009H112.399L106.287 9.79749Z" fill="#F79E89"/>
  <path opacity="0.2" d="M101.387 14.2783H17.7184L23.5645 136.988L96.3179 136.886L108.409 125.591L101.387 14.2783Z" fill="black"/>
  <path d="M102.027 14.274C102.919 51.023 105.735 87.6921 110.462 124.114C103.832 128.923 97.2358 133.732 90.6731 138.541H28.098C22.1917 97.3861 18.7252 55.8834 17.7184 14.274H102.027Z" fill="white"/>
  <path d="M110.462 124.114C103.832 128.923 97.2358 133.732 90.6731 138.541C92.1064 132.176 93.6001 125.811 95.1543 119.446L110.462 124.114Z" fill="#EBEBEB"/>
  <path d="M40.406 25.5016C40.5644 29.9937 40.7496 34.4887 40.9616 38.9865H28.1704C27.9557 34.4887 27.7705 29.9937 27.6148 25.5016H40.406ZM41.7105 24.0801H26.2177C26.3975 29.5199 26.6217 34.9625 26.8901 40.408H42.3869C42.1185 34.9653 41.8944 29.5227 41.7145 24.0801H41.7105Z" fill="#F79E89"/>
  <path d="M92.6741 30.5638H48.8611C48.8208 29.5497 48.7846 28.5313 48.7484 27.5171H92.5574C92.5936 28.5313 92.6339 29.5497 92.6741 30.5638Z" fill="#E0E0E0"/>
  <path d="M83.4179 36.9711H49.1309C49.0866 35.9527 49.0382 34.9386 48.998 33.9244H83.281C83.3267 34.94 83.3723 35.9555 83.4179 36.9711Z" fill="#E0E0E0"/>
  <path d="M41.6622 51.9114C41.9306 56.4092 42.2299 60.907 42.5601 65.4048H29.7648C29.4347 60.907 29.1354 56.4092 28.867 51.9114H41.6622ZM42.9265 50.4899H27.4337C27.7504 55.9353 28.1114 61.3808 28.5167 66.8263H44.0296C43.627 61.3836 43.2647 55.9382 42.9426 50.4899H42.9265Z" fill="#F79E89"/>
  <path d="M66.3348 56.9778H50.23C50.1656 55.9594 50.0971 54.9453 50.0367 53.9269H66.1415C66.2019 54.9453 66.2663 55.9594 66.3348 56.9778Z" fill="#E0E0E0"/>
  <path d="M81.582 56.9778H69.7409C69.6765 55.9594 69.6081 54.9453 69.5477 53.9269H81.3887C81.4491 54.9453 81.5135 55.9594 81.582 56.9778Z" fill="#E0E0E0"/>
  <path d="M89.0143 63.3893H50.6729C50.6004 62.3709 50.5319 61.3568 50.4595 60.3385H88.801C88.8734 61.3568 88.9419 62.3709 89.0143 63.3893Z" fill="#E0E0E0"/>
  <path d="M43.5827 78.3338C43.9666 82.8317 44.3799 87.3295 44.8228 91.8273H32.0276C31.5847 87.3295 31.1713 82.8317 30.7875 78.3338H43.5827ZM44.8148 76.9124H29.3179C29.7742 82.3607 30.2735 87.8076 30.8157 93.2531H46.3125C45.7757 87.8047 45.2764 82.3578 44.8148 76.9124V76.9124Z" fill="#F79E89"/>
  <path d="M96.4105 86.765H52.5934L52.8833 89.8118H96.7004L96.4105 86.765Z" fill="#E0E0E0"/>
  <path d="M86.3047 80.3538H52.0176C52.1062 81.3678 52.1948 82.3862 52.2874 83.4003H86.5705C86.4819 82.3862 86.3893 81.3806 86.3047 80.3538Z" fill="#E0E0E0"/>
  <path d="M46.1716 104.757C46.6708 109.254 47.1983 113.751 47.7539 118.246H34.9586C34.403 113.754 33.8756 109.257 33.3763 104.757H46.1716ZM47.3795 103.335H31.8705C32.4611 108.783 33.0985 114.227 33.783 119.667H49.2637C48.5846 114.227 47.9472 108.783 47.3513 103.335H47.3795Z" fill="#F79E89"/>
  <path d="M98.8222 109.81H55.0051C54.8883 108.792 54.7715 107.778 54.6588 106.759H98.4719C98.5887 107.79 98.7014 108.804 98.8222 109.81Z" fill="#E0E0E0"/>
  <path d="M75.7118 116.23H55.766C55.6412 115.216 55.5204 114.198 55.3996 113.183H75.3454C75.4662 114.198 75.5869 115.216 75.7118 116.23Z" fill="#E0E0E0"/>
  <path d="M87.6212 116.23H79.0092C78.8844 115.216 78.7636 114.198 78.6428 113.183H87.2549C87.3756 114.198 87.5125 115.216 87.6212 116.23Z" fill="#E0E0E0"/>
  <path d="M34.7694 37.0602L34.2017 36.1097C32.9616 34.0305 30.4332 32.1762 29.5595 31.6331L30.2118 30.4153C31.9258 31.5123 33.4574 32.8985 34.7453 34.5185C36.6939 31.7222 39.5767 28.8326 43.5224 25.7266L44.3558 26.8722C40.1444 30.1947 37.1972 33.237 35.3371 36.1649L34.7694 37.0602Z" fill="#F79E89"/>
  <path d="M36.2993 63.4784L35.7075 62.5279C34.4191 60.4487 31.8423 58.5902 30.9565 58.0471L31.5726 56.8292C33.3193 57.9266 34.8868 59.3136 36.2148 60.9367C38.091 58.1362 40.8972 55.2465 44.7664 52.1362C45.0523 52.5181 45.3421 52.9 45.628 53.2861C41.5012 56.6128 38.6305 59.651 36.8469 62.5831C36.6617 62.8801 36.4805 63.1814 36.2993 63.4784Z" fill="#F79E89"/>
  <path d="M38.5218 89.9687L37.9058 89.0183C36.561 86.9391 33.9359 85.0806 33.0381 84.5417C33.2313 84.1174 33.4407 83.727 33.6259 83.3239C35.3999 84.4231 37.0001 85.8075 38.3688 87.4271C40.1765 84.6266 42.9103 81.7412 46.695 78.6267L47.5888 79.7766C43.5626 83.1033 40.7442 86.1414 39.0411 89.0734L38.5218 89.9687Z" fill="#F79E89"/>
  <path d="M79.1099 131.221C76.7344 131.221 75.3655 130.296 74.1577 129.482C72.9498 128.667 71.911 127.963 69.906 127.963C67.9009 127.963 67.0071 128.701 66.061 129.482C65.1148 130.262 63.9553 131.221 61.5798 131.221C59.2044 131.221 57.8355 130.296 56.6316 129.482C55.4278 128.667 54.389 127.963 52.38 127.963C50.3709 127.963 49.4811 128.701 48.5349 129.482C47.5888 130.262 46.4292 131.221 44.0578 131.221C41.6864 131.221 40.3134 130.296 39.1056 129.482C37.8977 128.667 36.863 127.963 34.8539 127.963C34.8016 127.538 34.7452 127.148 34.6929 126.741C37.0683 126.741 38.4332 127.666 39.6411 128.48C40.8489 129.295 41.8837 129.999 43.8887 129.999C45.8937 129.999 46.7876 129.261 47.7337 128.48C48.6799 127.7 49.8434 126.741 52.2189 126.741C54.5944 126.741 55.9552 127.666 57.1631 128.48C58.3709 129.295 59.4097 129.999 61.4147 129.999C63.4198 129.999 64.3136 129.261 65.2598 128.48C66.2059 127.7 67.3695 126.741 69.7449 126.741C72.1204 126.741 73.4853 127.666 74.6931 128.48C75.901 129.295 76.9357 129.999 78.9448 129.999C78.9971 130.407 79.0575 130.814 79.1099 131.221Z" fill="#EBEBEB"/>
  <path d="M82.516 13.0944C81.1552 9.27554 78.0107 6.76781 74.6287 6.76781H67.7359C67.2228 6.7631 66.7223 6.59975 66.2964 6.29804C65.8706 5.99633 65.5381 5.56952 65.3403 5.07053C64.853 3.85094 64.0382 2.80801 62.996 2.06998C61.9538 1.33195 60.7297 0.931005 59.4741 0.916439C58.2595 0.903458 57.0727 1.29936 56.0864 2.04651C55.1001 2.79367 54.3658 3.85308 53.9904 5.07053C53.8375 5.56866 53.5373 6.00214 53.1338 6.30753C52.7303 6.61293 52.2446 6.77422 51.7478 6.76781H44.859C41.473 6.76781 38.558 9.28827 37.5515 13.0944L37.1489 14.6092H83.0475L82.516 13.0944Z" fill="#263238"/>
  <path d="M82.7617 16.1029H37.5877C37.2067 16.0982 36.8416 15.9415 36.5659 15.6643C36.2902 15.3871 36.1244 15.0101 36.1021 14.6093V14.6093C36.0922 14.4167 36.1198 14.224 36.1832 14.0431C36.2467 13.8621 36.3446 13.6968 36.4709 13.5573C36.5973 13.4178 36.7494 13.307 36.918 13.2318C37.0865 13.1565 37.2678 13.1185 37.4508 13.1199H82.6248C83.0051 13.1245 83.3697 13.2806 83.6453 13.5569C83.9209 13.8332 84.0871 14.2092 84.1104 14.6093C84.1209 14.8022 84.0937 14.9954 84.0305 15.1768C83.9673 15.3582 83.8695 15.524 83.7431 15.664C83.6167 15.804 83.4644 15.9152 83.2956 15.9907C83.1267 16.0662 82.945 16.1043 82.7617 16.1029V16.1029Z" fill="#F79E89"/>
  <path opacity="0.2" d="M82.7617 16.1029H37.5877C37.2067 16.0982 36.8416 15.9415 36.5659 15.6643C36.2902 15.3871 36.1244 15.0101 36.1021 14.6093V14.6093C36.0922 14.4167 36.1198 14.224 36.1832 14.0431C36.2467 13.8621 36.3446 13.6968 36.4709 13.5573C36.5973 13.4178 36.7494 13.307 36.918 13.2318C37.0865 13.1565 37.2678 13.1185 37.4508 13.1199H82.6248C83.0051 13.1245 83.3697 13.2806 83.6453 13.5569C83.9209 13.8332 84.0871 14.2092 84.1104 14.6093C84.1209 14.8022 84.0937 14.9954 84.0305 15.1768C83.9673 15.3582 83.8695 15.524 83.7431 15.664C83.6167 15.804 83.4644 15.9152 83.2956 15.9907C83.1267 16.0662 82.945 16.1043 82.7617 16.1029V16.1029Z" fill="black"/>
  <path d="M123.313 141.732H120.362L120.068 134.531H123.02L123.313 141.732Z" fill="#FFC3BD"/>
  <path d="M141.025 141.732H138.074L136.592 134.531H139.539L141.025 141.732Z" fill="#FFC3BD"/>
  <path d="M137.864 141.371H141.178C141.236 141.371 141.293 141.392 141.338 141.43C141.384 141.469 141.415 141.523 141.427 141.583L142.011 144.35C142.024 144.417 142.023 144.486 142.008 144.553C141.992 144.62 141.963 144.682 141.921 144.735C141.88 144.787 141.828 144.83 141.769 144.859C141.71 144.888 141.645 144.902 141.58 144.902C140.425 144.88 139.861 144.808 138.404 144.808C137.506 144.808 135.658 144.906 134.422 144.906C133.186 144.906 133.021 143.633 133.528 143.501C135.803 142.975 136.656 142.254 137.385 141.562C137.517 141.439 137.688 141.371 137.864 141.371V141.371Z" fill="#263238"/>
  <path d="M120.382 141.371H123.603C123.662 141.371 123.719 141.392 123.764 141.43C123.809 141.469 123.841 141.523 123.853 141.583L124.437 144.35C124.451 144.415 124.452 144.482 124.438 144.547C124.425 144.612 124.398 144.673 124.359 144.726C124.321 144.779 124.272 144.822 124.215 144.852C124.159 144.883 124.097 144.899 124.034 144.902C122.871 144.88 121.192 144.808 119.73 144.808C118.023 144.808 116.549 144.906 114.544 144.906C113.337 144.906 112.998 143.633 113.506 143.501C115.813 142.967 117.697 142.911 119.69 141.613C119.896 141.469 120.135 141.385 120.382 141.371Z" fill="#263238"/>
  <path d="M126.164 28.3064C125.761 30.5808 125.528 33.3983 127.038 34.9174C127.038 34.9174 126.172 37.2257 122.162 37.2257C118.498 37.2257 120.334 34.9174 120.334 34.9174C122.75 34.3106 122.613 31.1748 122.194 29.4012L126.164 28.3064Z" fill="#FFC3BD"/>
  <path d="M119.183 35.2356C119.263 34.6713 120.205 34.0136 121.276 33.7675C122.347 33.5214 126.462 32.9741 127.718 33.5214C128.974 34.0688 127.501 35.6896 127.501 35.6896L119.183 35.2356Z" fill="#F79E89"/>
  <path opacity="0.4" d="M119.183 35.2356C119.263 34.6713 120.205 34.0136 121.276 33.7675C122.347 33.5214 126.462 32.9741 127.718 33.5214C128.974 34.0688 127.501 35.6896 127.501 35.6896L119.183 35.2356Z" fill="white"/>
  <path opacity="0.2" d="M120.068 134.535L120.221 138.244H123.173L123.02 134.535H120.068Z" fill="black"/>
  <path opacity="0.2" d="M139.543 134.535H136.592L137.357 138.244H140.308L139.543 134.535Z" fill="black"/>
  <path d="M133.149 37.7179L129.594 40.2214C129.594 40.2214 134.7 49.7898 134.273 51.3216C133.689 53.4093 132.876 57.9708 131.769 60.2876C131.913 60.7883 132.65 61.9297 133.061 62.1249C135.879 59.8675 138.726 52.7898 138.621 50.8082C138.376 46.3147 133.149 37.7179 133.149 37.7179Z" fill="#FFC3BD"/>
  <path d="M131.768 60.296L128.95 60.0669L130.428 63.3384C130.428 63.3384 132.888 63.4529 133.298 61.4714L131.768 60.296Z" fill="#B55B52"/>
  <path d="M145.699 76.2505L145.462 76.7215L143.867 79.8997L87.267 48.3599L89.0949 44.7107L145.699 76.2505Z" fill="#F79E89"/>
  <path d="M149.359 68.9649L148.191 71.2902L147.531 72.6056L90.9268 41.0658L92.7546 37.4166L149.359 68.9649Z" fill="#F79E89"/>
  <path d="M90.9455 41.0549L89.1136 44.6996L145.695 76.2859L147.527 72.6412L90.9455 41.0549Z" fill="#F79E89"/>
  <path opacity="0.2" d="M90.9455 41.0549L89.1136 44.6996L145.695 76.2859L147.527 72.6412L90.9455 41.0549Z" fill="black"/>
  <path d="M84.8271 37.9003L83.1804 41.1845L87.267 48.3599L92.7547 37.4208L84.8271 37.9003Z" fill="#F79E89"/>
  <path opacity="0.8" d="M84.8271 37.9003L83.1804 41.1845L87.267 48.3599L92.7547 37.4208L84.8271 37.9003Z" fill="white"/>
  <path d="M81.429 38.1082L83.1803 41.1846L84.8271 37.9003L81.429 38.1082Z" fill="#F79E89"/>
  <path d="M126.683 61.5562L128.157 64.4501L130.44 63.3384L128.962 60.0669L126.683 61.5562Z" fill="#B55B52"/>
  <path d="M132.304 35.6218C135.094 36.0461 138.291 46.2297 138.291 46.2297L132.429 49.7177C132.429 49.7177 129.848 44.8889 128.58 41.2822C127.243 37.51 129.312 35.1635 132.304 35.6218Z" fill="#263238"/>
  <path opacity="0.2" d="M130.681 39.1139C129.413 37.8918 130.19 43.1236 130.794 46.4715C131.104 47.125 131.398 47.719 131.648 48.2155C133.061 45.5847 132.429 40.7984 130.681 39.1139Z" fill="black"/>
  <path d="M115.78 35.783C115.78 35.783 112.298 45.1689 115.603 62.6509H131.398C131.507 60.105 129.985 47.6469 132.32 35.6217C130.576 35.2667 128.811 35.0315 127.038 34.9173C124.805 34.7815 122.567 34.7815 120.334 34.9173C118.797 35.0793 117.274 35.3687 115.78 35.783V35.783Z" fill="#263238"/>
  <path d="M118.208 40.1449L114.23 38.4858C114.23 38.4858 109.649 48.3429 108.191 48.8393C106.23 49.5182 102.204 51.3853 99.7643 51.7502C99.4583 52.1745 98.9832 53.4475 99.0597 53.9142C102.422 55.0726 109.576 53.5366 111.058 52.323C114.456 49.5564 118.208 40.1449 118.208 40.1449Z" fill="#FFC3BD"/>
  <path opacity="0.2" d="M118.655 39.0248C117.999 37.4293 116.743 36.7631 115.434 36.9965C114.927 38.9526 114.069 43.251 114.226 49.7262L115.164 50.2014C115.164 50.2014 119.778 41.7532 118.655 39.0248Z" fill="black"/>
  <path d="M119.283 37.9088C120.274 40.6923 115.257 48.8817 115.257 48.8817L109.355 45.4872C110.241 42.94 111.385 40.5004 112.765 38.2101C114.838 34.947 118.192 34.8579 119.283 37.9088Z" fill="#263238"/>
  <path d="M99.9092 51.7417L96.3983 52.5267L98.1779 55.9509C99.1592 55.4365 100.051 54.7507 100.815 53.9227L99.9092 51.7417Z" fill="#FFC3BD"/>
  <path d="M94.7396 53.3032L96.1407 55.3484L98.1779 55.9679L96.3983 52.5437L94.7396 53.3032Z" fill="#FFC3BD"/>
  <path d="M119.472 25.0346C119.472 25.2848 119.324 25.4586 119.166 25.4586C119.009 25.4586 118.897 25.2381 118.913 24.9879C118.929 24.7377 119.062 24.5638 119.219 24.5638C119.376 24.5638 119.489 24.7844 119.472 25.0346Z" fill="#263238"/>
  <path d="M119.682 25.056C119.357 25.8036 118.935 26.5004 118.43 27.1267C118.585 27.2592 118.766 27.3541 118.96 27.4047C119.155 27.4553 119.357 27.4603 119.553 27.4194L119.682 25.056Z" fill="#ED847E"/>
  <path d="M119.171 24.1685C119.149 24.1637 119.129 24.1551 119.11 24.143C119.095 24.1327 119.081 24.1192 119.07 24.1033C119.06 24.0873 119.053 24.0693 119.049 24.0503C119.045 24.0313 119.045 24.0117 119.049 23.9927C119.052 23.9736 119.059 23.9556 119.07 23.9395C119.187 23.741 119.346 23.5745 119.536 23.4536C119.726 23.3327 119.94 23.261 120.161 23.2443C120.198 23.2463 120.232 23.2626 120.258 23.29C120.284 23.3174 120.3 23.3539 120.302 23.3926C120.302 23.432 120.287 23.4697 120.261 23.4976C120.234 23.5254 120.198 23.541 120.161 23.541C119.989 23.5579 119.824 23.6169 119.678 23.7134C119.531 23.8098 119.409 23.941 119.319 24.0964C119.305 24.1233 119.283 24.1447 119.256 24.1576C119.229 24.1705 119.199 24.1743 119.171 24.1685V24.1685Z" fill="#263238"/>
  <path d="M127.477 24.8185C127.13 27.8821 127.074 29.6897 125.516 31.1833C123.169 33.4237 119.646 31.7986 119.114 28.6841C118.639 25.8835 119.287 21.3475 122.21 20.2952C122.854 20.0607 123.543 20.0033 124.213 20.1284C124.883 20.2535 125.512 20.5571 126.039 21.0102C126.567 21.4634 126.976 22.0511 127.228 22.7176C127.479 23.3841 127.565 24.1072 127.477 24.8185V24.8185Z" fill="#FFC3BD"/>
  <path d="M121.618 25.4168C120.6 25.6289 118.973 23.2442 120.302 21.2202C119.63 20.868 117.435 22.2598 116.61 20.9614C115.784 19.663 118.075 18.9713 117.637 17.8723C119.191 18.2075 116.63 20.2528 118.108 20.0533C119.585 19.8539 121.288 16.977 122.939 18.1566C125.858 20.2231 129.836 16.7776 128.213 21.0929C130.202 20.6686 131.563 23.1466 129.667 24.8651C125.886 28.2809 128.213 28.7307 125.818 28.9047C124.618 28.9981 121.828 27.4917 121.618 25.4168Z" fill="#263238"/>
  <path d="M123.128 26.2187C122.989 26.525 122.793 26.7988 122.551 27.024C122.31 27.2491 122.028 27.4212 121.723 27.5299C120.918 27.8226 120.455 27.0631 120.644 26.2272C120.813 25.4719 121.449 24.411 122.283 24.4874C122.466 24.5063 122.641 24.5731 122.793 24.6819C122.945 24.7907 123.069 24.938 123.153 25.1102C123.237 25.2824 123.279 25.4741 123.275 25.6678C123.27 25.8614 123.22 26.0508 123.128 26.2187Z" fill="#FFC3BD"/>
  <path d="M121.2 62.6509C121.2 62.6509 124.549 86.4129 126.385 95.3236C128.399 105.083 135.98 137.539 135.98 137.539H141.383C141.383 137.539 136.387 105.86 135.235 96.2062C133.991 85.734 131.382 62.6636 131.382 62.6636L121.2 62.6509Z" fill="#F79E89"/>
  <path opacity="0.2" d="M121.2 62.6509C121.2 62.6509 124.549 86.4129 126.385 95.3236C128.399 105.083 135.98 137.539 135.98 137.539H141.383C141.383 137.539 136.387 105.86 135.235 96.2062C133.991 85.734 131.382 62.6636 131.382 62.6636L121.2 62.6509Z" fill="white"/>
  <path opacity="0.2" d="M125.178 70.9592C124.928 70.5858 124.702 70.4585 124.493 70.5349H124.449C124.401 70.5568 124.357 70.5854 124.316 70.6197C124.273 70.6564 124.234 70.6977 124.199 70.7428L124.135 70.8277L124.05 70.9677C123.98 71.0912 123.92 71.2203 123.869 71.3538C123.837 71.4344 123.805 71.5193 123.776 71.6042C123.748 71.689 123.704 71.8206 123.672 71.9394C123.64 72.0582 123.579 72.2619 123.535 72.4358C123.535 72.4825 123.515 72.5249 123.503 72.5716C123.491 72.6183 123.458 72.7668 123.438 72.8644C123.418 72.962 123.402 73.0341 123.386 73.119C123.35 73.2845 123.317 73.4584 123.285 73.6367C123.253 73.8149 123.217 74.0228 123.185 74.2222C123.185 74.2901 123.164 74.358 123.152 74.4301C123.112 74.6847 123.076 74.9436 123.04 75.2109C123.933 81.1259 124.996 87.9065 125.858 92.6377C125.898 92.4849 125.943 92.3237 125.979 92.1497C126.155 91.3604 126.289 90.5615 126.381 89.7566C127.142 83.6591 126.792 73.3906 125.178 70.9592Z" fill="black"/>
  <path d="M115.603 62.6509C115.603 62.6509 115.201 85.8952 115.519 95.3788C115.853 105.24 119.122 137.527 119.122 137.527H124.119C124.119 137.527 124.3 105.813 124.521 96.1299C124.763 85.5728 125.971 62.6509 125.971 62.6509H115.603Z" fill="#F79E89"/>
  <path opacity="0.2" d="M115.603 62.6509C115.603 62.6509 115.201 85.8952 115.519 95.3788C115.853 105.24 119.122 137.527 119.122 137.527H124.119C124.119 137.527 124.3 105.813 124.521 96.1299C124.763 85.5728 125.971 62.6509 125.971 62.6509H115.603Z" fill="white"/>
  <path d="M124.449 135.914C124.469 135.914 124.449 137.633 124.449 137.633H118.687L118.446 135.702L124.449 135.914Z" fill="#263238"/>
  <path d="M141.383 136.042C141.407 136.042 141.653 137.633 141.653 137.633H135.714L135.191 135.808L141.383 136.042Z" fill="#263238"/>
  <path d="M136.89 141.914C136.689 141.931 136.489 141.876 136.322 141.757C136.268 141.711 136.226 141.65 136.201 141.582C136.175 141.514 136.167 141.439 136.177 141.367C136.178 141.324 136.189 141.283 136.209 141.246C136.23 141.21 136.259 141.18 136.294 141.159C136.62 140.985 137.574 141.583 137.683 141.668C137.694 141.676 137.703 141.688 137.708 141.702C137.713 141.715 137.714 141.73 137.711 141.744C137.709 141.758 137.703 141.772 137.694 141.782C137.684 141.793 137.672 141.8 137.659 141.803C137.407 141.87 137.149 141.907 136.89 141.914ZM136.451 141.273C136.42 141.266 136.389 141.266 136.358 141.273C136.344 141.282 136.333 141.294 136.325 141.309C136.317 141.324 136.313 141.341 136.314 141.358C136.308 141.408 136.313 141.458 136.33 141.505C136.347 141.551 136.375 141.593 136.411 141.625C136.739 141.786 137.114 141.807 137.457 141.685C137.15 141.481 136.809 141.341 136.451 141.273Z" fill="#F79E89"/>
  <path d="M137.643 141.808C137.632 141.812 137.621 141.812 137.611 141.808C137.305 141.634 136.717 140.96 136.777 140.607C136.787 140.553 136.815 140.505 136.855 140.47C136.896 140.435 136.946 140.416 136.999 140.416C137.052 140.408 137.106 140.412 137.157 140.428C137.209 140.444 137.256 140.472 137.296 140.51C137.639 140.803 137.699 141.702 137.699 141.74C137.699 141.753 137.696 141.766 137.69 141.778C137.685 141.79 137.677 141.8 137.667 141.808C137.659 141.81 137.651 141.81 137.643 141.808V141.808ZM137.047 140.535H137.035C136.942 140.535 136.934 140.59 136.93 140.612C136.894 140.815 137.268 141.329 137.574 141.571C137.553 141.217 137.431 140.878 137.224 140.599C137.198 140.575 137.168 140.558 137.135 140.549C137.103 140.539 137.068 140.538 137.035 140.544L137.047 140.535Z" fill="#F79E89"/>
  <path d="M119.154 141.914C118.902 141.938 118.649 141.871 118.438 141.723C118.391 141.678 118.356 141.623 118.333 141.561C118.311 141.499 118.302 141.433 118.309 141.367C118.309 141.326 118.32 141.287 118.339 141.253C118.359 141.218 118.388 141.19 118.422 141.172C118.78 140.96 119.968 141.596 120.101 141.668C120.114 141.674 120.125 141.685 120.131 141.699C120.138 141.713 120.14 141.729 120.137 141.744C120.135 141.759 120.129 141.773 120.118 141.784C120.108 141.795 120.095 141.802 120.08 141.803C119.776 141.872 119.466 141.909 119.154 141.914V141.914ZM118.619 141.273C118.575 141.272 118.531 141.28 118.49 141.299C118.477 141.307 118.465 141.319 118.458 141.333C118.45 141.347 118.446 141.363 118.446 141.379C118.44 141.423 118.445 141.467 118.46 141.507C118.474 141.548 118.499 141.584 118.53 141.613C118.711 141.782 119.199 141.812 119.851 141.697C119.466 141.484 119.049 141.341 118.619 141.273V141.273Z" fill="#F79E89"/>
  <path d="M120.068 141.807H120.04C119.682 141.637 118.977 140.959 119.034 140.616C119.034 140.535 119.102 140.429 119.291 140.412C119.363 140.401 119.436 140.406 119.505 140.427C119.575 140.449 119.639 140.485 119.694 140.535C120.068 140.862 120.145 141.697 120.149 141.735C120.151 141.747 120.149 141.76 120.144 141.771C120.139 141.783 120.131 141.792 120.121 141.799C120.105 141.808 120.086 141.811 120.068 141.807V141.807ZM119.348 140.535H119.319C119.195 140.535 119.187 140.599 119.183 140.62C119.15 140.828 119.629 141.358 119.988 141.587C119.953 141.23 119.812 140.895 119.585 140.628C119.517 140.574 119.433 140.544 119.348 140.544V140.535Z" fill="#F79E89"/>
</svg>
